# xmcd
#
# Track frame offsets:
#	182
#	15295
#	26345
#	52375
#	65705
#	84900
#	95790
#	107680
#	120275
#	136885
#	163880
#
# Disc length: 2334 seconds
#
# Revision: 0
# Processed by: cddbd v1.5.2PL0 Copyright (c) Steve Scherf et al.
# Submitted via: audiograbber 1.83.01
#
DISCID=8b091c0b
DTITLE=MS® - Jugo De Hits 9.2
DYEAR=1995
DGENRE=Pop
TTITLE0=Mouth and Mc Neal - How Do You Do?
TTITLE1=New Vaudeville Band - Winchester Cathedral
TTITLE2=Barry Ryan - Eloise
TTITLE3=Bobby Bloom - Montego Bay
TTITLE4=Eric Burdon and The Animals - Monterey
TTITLE5=Sam The Sham and The Pharaons - Wolly Bully
TTITLE6=Troggs - Wild Thing
TTITLE7=White Plains - My Baby Love's Love Me
TTITLE8=Steam - Na Na Hey Kiss Him Goodbye
TTITLE9=Buddy Miles - We Got To Live Together
TTITLE10=Soulful Dynamics - Mademoiselle Ninette
EXTD=MS®
EXTT0=MS®
EXTT1=
EXTT2=
EXTT3=
EXTT4=
EXTT5=
EXTT6=
EXTT7=
EXTT8=
EXTT9=
EXTT10=
PLAYORDER=
